<svg xmlns="http://www.w3.org/2000/svg" version="1.1" xmlns:xlink="http://www.w3.org/1999/xlink" xmlns:svgjs="http://svgjs.dev/svgjs" width="1000" height="623" viewBox="0 0 1000 623"><g transform="matrix(1,0,0,1,-0.6060606060606233,0.2522267206477409)"><svg viewBox="0 0 396 247" data-background-color="#444444" preserveAspectRatio="xMidYMid meet" height="623" width="1000" xmlns="http://www.w3.org/2000/svg" xmlns:xlink="http://www.w3.org/1999/xlink"><g id="tight-bounds" transform="matrix(1,0,0,1,0.2400000000000091,-0.09999999999999432)"><svg viewBox="0 0 395.52 247.2" height="247.2" width="395.52"><g><svg></svg></g><g><svg viewBox="0 0 395.52 247.2" height="247.2" width="395.52"><g transform="matrix(1,0,0,1,75.54432000000003,88.57581603857572)"><svg viewBox="0 0 244.43135999999993 70.04836792284854" height="70.04836792284854" width="244.43135999999993"><g><svg viewBox="0 0 244.43135999999993 70.04836792284854" height="70.04836792284854" width="244.43135999999993"><g><svg viewBox="0 0 382.0657430857067 109.49119516572715" height="70.04836792284854" width="244.43135999999993"><g transform="matrix(1,0,0,1,137.63438308570676,15.13228529425028)"><svg viewBox="0 0 244.43135999999996 79.22662457722659" height="79.22662457722659" width="244.43135999999996"><g id="textblocktransform"><svg viewBox="0 0 244.43135999999996 79.22662457722659" height="79.22662457722659" width="244.43135999999996" id="textblock"><g><svg viewBox="0 0 244.43135999999996 79.22662457722659" height="79.22662457722659" width="244.43135999999996"><g transform="matrix(1,0,0,1,0,0)"><svg width="244.43135999999996" viewBox="5 -28.75 88.69999694824219 28.75" height="79.22662457722659" data-palette-color="#f9f5f5"><path d="M5-28.75L5-28.75 21-28.75 21-22.85 11.3-22.85 11.3-17.2 21-17.2 21-11.5 11.3-11.5 11.3-5.65 20.8-5.65 20.8 0 5 0 5-28.75ZM23.45-5.65L23.45-5.65 23.45 0 39.45 0 39.45-5.65 23.45-5.65ZM39.45-22.85L39.45-22.85 39.45-28.75 23.25-28.75 23.25-22.85 39.45-22.85ZM31.35-11.5L31.35-11.5 31.35-17.2 23.25-17.2 23.25-11.5 31.35-11.5ZM44.35 0L44.35-6.9 51.25-6.9 51.25 0 44.35 0ZM59.25-28.75L59.25-28.75 65.55-28.75 65.55-5.85 75.25-5.85 75.25 0 64.95 0 59.25-3.4 59.25-28.75ZM93.7-28.75L93.7-28.75 87.4-28.75 87.4-5.85 77.7-5.85 77.7 0 88.05 0 93.7-3.4 93.7-28.75Z" opacity="1" transform="matrix(1,0,0,1,0,0)" fill="#f9f5f5" class="undefined-text-0" data-fill-palette-color="primary" id="text-0"></path></svg></g></svg></g></svg></g></svg></g><g><svg viewBox="0 0 118.93087846201342 109.49119516572715" height="109.49119516572715" width="118.93087846201342"><g><svg xmlns="http://www.w3.org/2000/svg" xmlns:xlink="http://www.w3.org/1999/xlink" version="1.1" x="0" y="0" viewBox="9.397998809814453 12.339999198913574 80.19300842285156 73.82799530029297" enable-background="new 0 0 100 100" xml:space="preserve" height="109.49119516572715" width="118.93087846201342" class="icon-icon-0" data-fill-palette-color="accent" id="icon-0"><g fill="#5317b0" data-fill-palette-color="accent"><path d="M55.894 49.046c0 0.515 0 1.027 0 1.992 0 2.509 1.142 3.675 3.328 3.675 0.708 0 2.05 0 2.757 0 2.606 0 4.379 2.119 4.379 4.375 0 0.386 0 1.611 0 2.318 0 2.509-1.137 4.021-3.795 4.021-0.451 0-2.682 0-3.196 0-2.796 0-4.253-1.278-4.253-3.889 0-0.386 0-1.515 0-2.158 0-2.059-1.479-3.41-3.281-3.41-0.579 0-4.052 0-4.759 0-2.38 0-2.959 1.608-2.959 3.41 0 0.644 0 3.284 0 4.249 0 2.252 1.351 3.024 3.088 3.024 0.836 0 2.03 0 2.931 0 3.31 0 4.9 1.452 4.9 3.77 0 0.772 0 0.379 0 1.601 0 2.634 1.498 3.632 3.881 3.632 1.865 0 4.272 0 4.915 0 2.433 0 3.622-1.284 3.622-3.479 0-0.901 0-1.024 0-1.796 0-3.023 1.676-3.988 4.893-3.988 0.9 0 2.934 0 3.384 0 1.866 0 2.725-1.158 2.725-2.702 0-1.543 0-4.181 0-6.24 0-2.058-1.158-3.023-3.409-3.023-0.966 0-2.896 0-4.054 0-2.419 0-4.588-1.829-4.588-5.21 0-1.094 0-0.898 0-1.992 0-2.509-1.142-3.675-3.329-3.675-0.708 0-2.049 0-2.757 0-2.606 0-4.379-2.118-4.379-4.374 0-0.386 0-1.611 0-2.318 0-2.509 1.138-4.021 3.796-4.021 0.45 0 2.681 0 3.195 0 2.796 0 4.254 1.278 4.254 3.889 0 0.386 0 1.515 0 2.158 0 2.059 1.479 3.409 3.281 3.409 0.579 0 4.05 0 4.758 0 2.38 0 2.959-1.608 2.959-3.409 0-0.644 0-3.284 0-4.249 0-2.251-1.351-3.023-3.088-3.023-0.836 0-2.03 0-2.931 0-3.31 0-4.9-1.452-4.9-3.77 0-0.772 0-0.293 0-1.516 0-2.633-1.425-3.717-3.808-3.717-1.865 0-4.345 0-4.988 0-2.433 0-3.622 1.284-3.622 3.48 0 0.9 0 1.023 0 1.795 0 3.023-1.676 3.988-4.893 3.988-0.9 0-2.935 0-3.385 0-1.865 0-2.724 1.158-2.724 2.702s0 4.181 0 6.24 1.157 3.024 3.41 3.024c0.964 0 2.894 0 4.052 0C53.725 43.836 55.894 45.665 55.894 49.046z" fill="#5317b0" data-fill-palette-color="accent"></path><path d="M86.07 54.482c1.945 0 3.521-1.577 3.521-3.521v-2.688c0-1.945-1.576-3.522-3.521-3.522h-2.688c-1.944 0-3.521 1.577-3.521 3.522v2.688c0 1.945 1.577 3.521 3.521 3.521H86.07z" fill="#5317b0" data-fill-palette-color="accent"></path><path d="M36.547 31.871c1.158 0 2.042 0 3.008 0 2.251 0 3.409-0.965 3.409-3.023 0-0.569 0-1.649 0-1.974 0.113-3.194 2.224-4.658 4.578-4.658 1.157 0 2.043 0 3.008 0 2.253 0 3.41-0.965 3.41-3.023s0-2.607 0-4.151-0.858-2.702-2.724-2.702c-0.45 0-4.795 0-5.695 0-1.846 0-2.631 0.855-2.631 2.782 0 0.708 0 2.047 0 2.434 0 2.195-1.681 4.253-4.171 4.364-1.486 0-3.597 0-4.194 0-1.845 0-2.631 0.855-2.631 2.782 0 0.708 0 2.123 0 2.508 0 2.256-1.771 4.375-4.379 4.375-0.707 0-2.049 0-2.757 0-2.188 0-3.329 1.165-3.329 3.674 0 1.093 0 1.978 0 3.071 0 3.381-2.168 5.21-4.588 5.21-1.158 0-3.088 0-4.054 0-2.251 0-3.409 0.965-3.409 3.023 0 0.267 0 6.5 0 6.766 0 2.059 1.158 3.023 3.409 3.023 0.966 0 2.896 0 4.054 0 2.42 0 4.588 1.049 4.588 4.431 0 1.093 0 1.318 0 2.412 0 2.509 1.142 3.674 3.329 3.674 0.708 0 2.05 0 2.757 0 2.607 0 4.379 2.119 4.379 4.375 0 0.386 0 1.831 0 2.539 0 1.927 0.786 2.782 2.631 2.782 0.6 0 2.726 0 4.213 0l-0.021 0.024c2.491 0.11 4.171 2.169 4.171 4.364 0 0.386 0 1.726 0 2.433 0 1.927 0.785 2.782 2.631 2.782 0.9 0 5.244 0 5.694 0 1.866 0 2.725-1.158 2.725-2.702s0-2.092 0-4.151-1.158-3.024-3.409-3.024c-0.965 0-1.851 0-3.009 0-2.348 0-4.453-1.457-4.576-4.633 0-0.379 0-1.372 0-2.053 0-2.059-1.158-3.023-3.409-3.023-0.966 0-1.85 0-3.008 0-2.421 0-4.59-1.828-4.59-5.209 0-0.515 0-0.667 0-1.633 0-2.509 1.143-3.674 3.33-3.674 0.708 0 2.049 0 2.756 0 2.607 0 4.38-2.119 4.38-4.375 0-0.255 0-3.236 0-3.491 0-2.256-1.772-4.375-4.38-4.375-0.707 0-2.048 0-2.756 0-2.188 0-3.33-1.166-3.33-3.674 0-0.965 0-2.845 0-3.36C31.957 33.411 34.126 31.871 36.547 31.871z" fill="#5317b0" data-fill-palette-color="accent"></path></g></svg></g></svg></g></svg></g></svg></g></svg></g><path d="M207.899 82.576L207.899 22.173 5.046 22.173 5.046 225.027 207.899 225.027 207.899 164.624 203.328 164.624 203.328 220.456 9.617 220.456 9.617 26.744 203.328 26.744 203.328 82.576Z" fill="#f9f5f5" stroke="transparent" data-fill-palette-color="primary"></path></svg></g><defs></defs></svg><rect width="395.52" height="247.2" fill="none" stroke="none" visibility="hidden"></rect></g></svg></g></svg>